<?xml version="1.0" encoding="UTF-8"?>
<svg width="121px" height="38px" viewBox="0 0 121 38" version="1.1" xmlns="http://www.w3.org/2000/svg" xmlns:xlink="http://www.w3.org/1999/xlink">
    <!-- Generator: Sketch 42 (36781) - http://www.bohemiancoding.com/sketch -->
    <title>Group 3</title>
    <desc>Created with Sketch.</desc>
    <defs>
        <linearGradient x1="50%" y1="97.5745376%" x2="50%" y2="0%" id="linearGradient-1">
            <stop stop-color="#0065AC" offset="0%"></stop>
            <stop stop-color="#00F5E4" offset="100%"></stop>
        </linearGradient>
        <linearGradient x1="50%" y1="0%" x2="50%" y2="100%" id="linearGradient-2">
            <stop stop-color="#11CECE" offset="0%"></stop>
            <stop stop-color="#83FFE4" offset="100%"></stop>
        </linearGradient>
    </defs>
    <g id="Page-1" stroke="none" stroke-width="1" fill="none" fill-rule="evenodd">
        <g id="logo-xlr-labs-blog" transform="translate(-15.000000, -6.000000)">
            <g id="Group-3" transform="translate(16.000000, 7.000000)">
                <g id="Group-2">
                    <g id="Group" transform="translate(30.525547, 11.135135)">
                        <g id="logo-xlr-labs-ngmvps-beta">
                            <path d="M1.196,1.004 L3.282,1.004 L5.55,4.532 L7.916,1.004 L9.876,1.004 L6.572,5.82 L10.114,11 L7.986,11 L5.494,7.178 L2.96,11 L0.958,11 L4.5,5.82 L1.196,1.004 Z M11.3582222,1.004 L13.1082222,1.004 L13.1082222,9.488 L18.1902222,9.488 L18.1902222,11 L11.3582222,11 L11.3582222,1.004 Z M19.6164444,1.004 L24.3904444,1.004 C25.4917833,1.004 26.317775,1.24199762 26.8684444,1.718 C27.4191139,2.19400238 27.6944444,2.85666242 27.6944444,3.706 C27.6944444,4.18200238 27.6244451,4.57633177 27.4844444,4.889 C27.3444437,5.20166823 27.181112,5.45366571 26.9944444,5.645 C26.8077768,5.83633429 26.6234454,5.97399958 26.4414444,6.058 C26.2594435,6.14200042 26.1264449,6.19799986 26.0424444,6.226 L26.0424444,6.254 C26.1917785,6.27266676 26.3527769,6.31933296 26.5254444,6.394 C26.698112,6.46866704 26.8591104,6.58766585 27.0084444,6.751 C27.1577785,6.91433415 27.281444,7.12666536 27.3794444,7.388 C27.4774449,7.64933464 27.5264444,7.97599804 27.5264444,8.368 C27.5264444,8.95600294 27.5707773,9.49033093 27.6594444,9.971 C27.7481116,10.4516691 27.8857768,10.7946656 28.0724444,11 L26.1964444,11 C26.0657771,10.7853323 25.9887779,10.5473346 25.9654444,10.286 C25.942111,10.0246654 25.9304444,9.77266788 25.9304444,9.53 C25.9304444,9.07266438 25.9024447,8.67833499 25.8464444,8.347 C25.7904442,8.01566501 25.6877785,7.74033443 25.5384444,7.521 C25.3891104,7.30166557 25.1861124,7.14066718 24.9294444,7.038 C24.6727765,6.93533282 24.3437798,6.884 23.9424444,6.884 L21.3664444,6.884 L21.3664444,11 L19.6164444,11 L19.6164444,1.004 Z M21.3664444,5.554 L24.2364444,5.554 C24.7964472,5.554 25.2211097,5.42100133 25.5104444,5.155 C25.7997792,4.88899867 25.9444444,4.49000266 25.9444444,3.958 C25.9444444,3.64066508 25.8977782,3.38166767 25.8044444,3.181 C25.7111106,2.98033233 25.5827786,2.82400056 25.4194444,2.712 C25.2561103,2.59999944 25.0694455,2.52533352 24.8594444,2.488 C24.6494434,2.45066648 24.4324456,2.432 24.2084444,2.432 L21.3664444,2.432 L21.3664444,5.554 Z M33.8088889,1.004 L35.5588889,1.004 L35.5588889,9.488 L40.6408889,9.488 L40.6408889,11 L33.8088889,11 L33.8088889,1.004 Z M44.7411111,1.004 L46.6031111,1.004 L50.4531111,11 L48.5771111,11 L47.6391111,8.354 L43.6491111,8.354 L42.7111111,11 L40.9051111,11 L44.7411111,1.004 Z M44.1251111,7.024 L47.1771111,7.024 L45.6791111,2.726 L45.6371111,2.726 L44.1251111,7.024 Z M53.3773333,5.19 L56.2333333,5.19 C56.6533354,5.19 57.0033319,5.07100119 57.2833333,4.833 C57.5633347,4.59499881 57.7033333,4.25200224 57.7033333,3.804 C57.7033333,3.29999748 57.5773346,2.94533436 57.3253333,2.74 C57.0733321,2.53466564 56.7093357,2.432 56.2333333,2.432 L53.3773333,2.432 L53.3773333,5.19 Z M51.6273333,1.004 L56.4853333,1.004 C57.3813378,1.004 58.0999973,1.20933128 58.6413333,1.62 C59.1826694,2.03066872 59.4533333,2.65132918 59.4533333,3.482 C59.4533333,3.98600252 59.3296679,4.41766487 59.0823333,4.777 C58.8349988,5.13633513 58.482669,5.41399902 58.0253333,5.61 L58.0253333,5.638 C58.6413364,5.76866732 59.1079984,6.06033107 59.4253333,6.513 C59.7426683,6.96566893 59.9013333,7.53266326 59.9013333,8.214 C59.9013333,8.60600196 59.831334,8.97233163 59.6913333,9.313 C59.5513326,9.65366837 59.3320015,9.94766543 59.0333333,10.195 C58.7346652,10.4423346 58.3520023,10.6383326 57.8853333,10.783 C57.4186643,10.9276674 56.8633366,11 56.2193333,11 L51.6273333,11 L51.6273333,1.004 Z M53.3773333,9.572 L56.4713333,9.572 C57.003336,9.572 57.4163319,9.43433471 57.7103333,9.159 C58.0043348,8.88366529 58.1513333,8.49400252 58.1513333,7.99 C58.1513333,7.49533086 58.0043348,7.11500133 57.7103333,6.849 C57.4163319,6.58299867 57.003336,6.45 56.4713333,6.45 L53.3773333,6.45 L53.3773333,9.572 Z M62.8535556,7.668 C62.8535556,8.05066858 62.9188882,8.37733198 63.0495556,8.648 C63.1802229,8.91866802 63.3622211,9.14033247 63.5955556,9.313 C63.8288901,9.48566753 64.0972207,9.61166627 64.4005556,9.691 C64.7038904,9.77033373 65.0328871,9.81 65.3875556,9.81 C65.7702241,9.81 66.0968875,9.76566711 66.3675556,9.677 C66.6382236,9.58833289 66.8575547,9.4740007 67.0255556,9.334 C67.1935564,9.1939993 67.3148885,9.03300091 67.3895556,8.851 C67.4642226,8.66899909 67.5015556,8.4846676 67.5015556,8.298 C67.5015556,7.91533142 67.4152231,7.63300091 67.2425556,7.451 C67.069888,7.26899909 66.8808899,7.14066704 66.6755556,7.066 C66.3208871,6.93533268 65.9078913,6.81166725 65.4365556,6.695 C64.9652199,6.57833275 64.3842257,6.4266676 63.6935556,6.24 C63.2642201,6.12799944 62.9072237,5.98100091 62.6225556,5.799 C62.3378875,5.61699909 62.1115564,5.41400112 61.9435556,5.19 C61.7755547,4.96599888 61.6565559,4.72800126 61.5865556,4.476 C61.5165552,4.22399874 61.4815556,3.96733464 61.4815556,3.706 C61.4815556,3.20199748 61.5865545,2.76566851 61.7965556,2.397 C62.0065566,2.02833149 62.2842205,1.72266788 62.6295556,1.48 C62.9748906,1.23733212 63.3668867,1.05766725 63.8055556,0.941 C64.2442244,0.82433275 64.6875533,0.766 65.1355556,0.766 C65.6582248,0.766 66.1505533,0.83366599 66.6125556,0.969 C67.0745579,1.10433401 67.4805538,1.30733198 67.8305556,1.578 C68.1805573,1.84866802 68.4582212,2.18233135 68.6635556,2.579 C68.8688899,2.97566865 68.9715556,3.43533072 68.9715556,3.958 L67.2215556,3.958 C67.1748887,3.31399678 66.9555575,2.85900133 66.5635556,2.593 C66.1715536,2.32699867 65.6722253,2.194 65.0655556,2.194 C64.8602212,2.194 64.6502233,2.21499979 64.4355556,2.257 C64.2208878,2.29900021 64.0248898,2.36899951 63.8475556,2.467 C63.6702213,2.56500049 63.5232228,2.69799916 63.4065556,2.866 C63.2898883,3.03400084 63.2315556,3.24399874 63.2315556,3.496 C63.2315556,3.85066844 63.3412211,4.12833233 63.5605556,4.329 C63.77989,4.52966767 64.0668871,4.68133282 64.4215556,4.784 C64.4588891,4.79333338 64.6058876,4.83299965 64.8625556,4.903 C65.1192235,4.97300035 65.4062206,5.04999958 65.7235556,5.134 C66.0408905,5.21800042 66.3512207,5.29966627 66.6545556,5.379 C66.9578904,5.45833373 67.1748882,5.51666648 67.3055556,5.554 C67.6322239,5.65666718 67.9168877,5.79666578 68.1595556,5.974 C68.4022234,6.15133422 68.6052214,6.35433219 68.7685556,6.583 C68.9318897,6.81166781 69.0532218,7.05666536 69.1325556,7.318 C69.2118893,7.57933464 69.2515556,7.84066536 69.2515556,8.102 C69.2515556,8.6620028 69.1372234,9.14033135 68.9085556,9.537 C68.6798878,9.93366865 68.3788908,10.2579987 68.0055556,10.51 C67.6322204,10.7620013 67.2075579,10.9463328 66.7315556,11.063 C66.2555532,11.1796673 65.7702247,11.238 65.2755556,11.238 C64.7062194,11.238 64.1695581,11.1680007 63.6655556,11.028 C63.161553,10.8879993 62.7228908,10.6733348 62.3495556,10.384 C61.9762204,10.0946652 61.6775567,9.72366893 61.4535556,9.271 C61.2295544,8.81833107 61.1128889,8.28400308 61.1035556,7.668 L62.8535556,7.668 Z" id="XLR-LABS" fill="#FFFFFF"></path>
                            <path d="M2.67781022,15.0221622 L2.67781022,22.1621622 L7.63781022,22.1621622 L7.63781022,21.3621622 L3.62781022,21.3621622 L3.62781022,18.8921622 L7.33781022,18.8921622 L7.33781022,18.0921622 L3.62781022,18.0921622 L3.62781022,15.8221622 L7.60781022,15.8221622 L7.60781022,15.0221622 L2.67781022,15.0221622 Z M9.4178102,16.9921622 L9.4178102,22.1621622 L10.2678102,22.1621622 L10.2678102,19.2421622 C10.2678102,19.0088277 10.2994765,18.7938298 10.3628102,18.5971622 C10.4261438,18.4004945 10.5211429,18.2288296 10.6478102,18.0821622 C10.7744775,17.9354948 10.9328092,17.8221626 11.1228102,17.7421622 C11.3128111,17.6621618 11.5378089,17.6221622 11.7978102,17.6221622 C12.1244785,17.6221622 12.3811426,17.7154946 12.5678102,17.9021622 C12.7544778,18.0888298 12.8478102,18.3421606 12.8478102,18.6621622 L12.8478102,22.1621622 L13.6978102,22.1621622 L13.6978102,18.7621622 C13.6978102,18.4821608 13.6694771,18.2271633 13.6128102,17.9971622 C13.5561432,17.767161 13.4578109,17.5688297 13.3178102,17.4021622 C13.1778095,17.2354947 12.994478,17.105496 12.7678102,17.0121622 C12.5411424,16.9188284 12.2578119,16.8721622 11.9178102,16.8721622 C11.1511397,16.8721622 10.5911453,17.1854924 10.2378102,17.8121622 L10.2178102,17.8121622 L10.2178102,16.9921622 L9.4178102,16.9921622 Z M20.2078102,21.7221622 C20.2078102,22.5688331 20.0144788,23.2021601 19.6278102,23.6221622 C19.2411416,24.0421643 18.634481,24.2521622 17.8078102,24.2521622 C17.567809,24.2521622 17.3228114,24.2254958 17.0728102,24.1721622 C16.8228089,24.1188286 16.5961445,24.0321628 16.3928102,23.9121622 C16.1894758,23.7921616 16.0211442,23.6354965 15.8878102,23.4421622 C15.7544762,23.2488279 15.6811436,23.0121636 15.6678102,22.7321622 L16.5178102,22.7321622 C16.5244769,22.8854963 16.5728097,23.015495 16.6628102,23.1221622 C16.7528106,23.2288294 16.8628095,23.3154952 16.9928102,23.3821622 C17.1228108,23.4488292 17.2644761,23.497162 17.4178102,23.5271622 C17.5711443,23.5571623 17.7178095,23.5721622 17.8578102,23.5721622 C18.1378116,23.5721622 18.3744759,23.5238293 18.5678102,23.4271622 C18.7611445,23.330495 18.9211429,23.197163 19.0478102,23.0271622 C19.1744775,22.8571613 19.2661432,22.6521634 19.3228102,22.4121622 C19.3794771,22.172161 19.4078102,21.9088303 19.4078102,21.6221622 L19.4078102,21.2821622 L19.3878102,21.2821622 C19.2411428,21.6021638 19.0194783,21.8371614 18.7228102,21.9871622 C18.426142,22.1371629 18.1111452,22.2121622 17.7778102,22.2121622 C17.3911416,22.2121622 17.0544783,22.1421629 16.7678102,22.0021622 C16.4811421,21.8621615 16.2411445,21.67383 16.0478102,21.4371622 C15.8544759,21.2004943 15.7094773,20.9238304 15.6128102,20.6071622 C15.516143,20.2904939 15.4678102,19.9554973 15.4678102,19.6021622 C15.4678102,19.295494 15.5078098,18.9804971 15.5878102,18.6571622 C15.6678106,18.3338272 15.8011426,18.0404968 15.9878102,17.7771622 C16.1744778,17.5138275 16.421142,17.297163 16.7278102,17.1271622 C17.0344784,16.9571613 17.4111413,16.8721622 17.8578102,16.8721622 C18.1844785,16.8721622 18.4844755,16.9438281 18.7578102,17.0871622 C19.0311449,17.2304962 19.2444761,17.4454941 19.3978102,17.7321622 L19.4078102,17.7321622 L19.4078102,16.9921622 L20.2078102,16.9921622 L20.2078102,21.7221622 Z M17.8278102,21.4721622 C18.1078116,21.4721622 18.3461425,21.4138294 18.5428102,21.2971622 C18.7394778,21.1804949 18.8978096,21.0271631 19.0178102,20.8371622 C19.1378108,20.6471612 19.2261432,20.4321634 19.2828102,20.1921622 C19.3394771,19.952161 19.3678102,19.7121634 19.3678102,19.4721622 C19.3678102,19.2454944 19.3411438,19.0221633 19.2878102,18.8021622 C19.2344766,18.5821611 19.1494774,18.3838297 19.0328102,18.2071622 C18.9161429,18.0304946 18.7644778,17.8888294 18.5778102,17.7821622 C18.3911426,17.675495 18.1644782,17.6221622 17.8978102,17.6221622 C17.6244755,17.6221622 17.3911445,17.6738283 17.1978102,17.7771622 C17.0044759,17.880496 16.8461441,18.018828 16.7228102,18.1921622 C16.5994762,18.3654964 16.5094771,18.5654944 16.4528102,18.7921622 C16.3961432,19.01883 16.3678102,19.2554943 16.3678102,19.5021622 C16.3678102,19.7354967 16.3911433,19.9688277 16.4378102,20.2021622 C16.4844771,20.4354967 16.5644763,20.6471612 16.6778102,20.8371622 C16.7911441,21.0271631 16.9411426,21.1804949 17.1278102,21.2971622 C17.3144778,21.4138294 17.5478088,21.4721622 17.8278102,21.4721622 Z M23.1578102,16.0621622 L23.1578102,15.0221622 L22.3078102,15.0221622 L22.3078102,16.0621622 L23.1578102,16.0621622 Z M22.3078102,16.9921622 L22.3078102,22.1621622 L23.1578102,22.1621622 L23.1578102,16.9921622 L22.3078102,16.9921622 Z M25.2478101,16.9921622 L25.2478101,22.1621622 L26.0978101,22.1621622 L26.0978101,19.2421622 C26.0978101,19.0088277 26.1294765,18.7938298 26.1928101,18.5971622 C26.2561438,18.4004945 26.3511428,18.2288296 26.4778101,18.0821622 C26.6044774,17.9354948 26.7628092,17.8221626 26.9528101,17.7421622 C27.1428111,17.6621618 27.3678088,17.6221622 27.6278101,17.6221622 C27.9544784,17.6221622 28.2111425,17.7154946 28.3978101,17.9021622 C28.5844777,18.0888298 28.6778101,18.3421606 28.6778101,18.6621622 L28.6778101,22.1621622 L29.5278101,22.1621622 L29.5278101,18.7621622 C29.5278101,18.4821608 29.4994771,18.2271633 29.4428101,17.9971622 C29.3861432,17.767161 29.2878108,17.5688297 29.1478101,17.4021622 C29.0078094,17.2354947 28.8244779,17.105496 28.5978101,17.0121622 C28.3711423,16.9188284 28.0878118,16.8721622 27.7478101,16.8721622 C26.9811396,16.8721622 26.4211452,17.1854924 26.0678101,17.8121622 L26.0478101,17.8121622 L26.0478101,16.9921622 L25.2478101,16.9921622 Z M35.1678101,19.0821622 C35.1544767,18.8821612 35.1094772,18.6921631 35.0328101,18.5121622 C34.9561431,18.3321613 34.8528108,18.1771628 34.7228101,18.0471622 C34.5928095,17.9171615 34.4394777,17.8138292 34.2628101,17.7371622 C34.0861426,17.6604951 33.8911445,17.6221622 33.6778101,17.6221622 C33.457809,17.6221622 33.2594777,17.6604951 33.0828101,17.7371622 C32.9061426,17.8138292 32.7544774,17.9188282 32.6278101,18.0521622 C32.5011428,18.1854962 32.4011438,18.3404946 32.3278101,18.5171622 C32.2544764,18.6938297 32.2111435,18.8821612 32.1978101,19.0821622 L35.1678101,19.0821622 Z M35.9878101,20.5221622 C35.8744762,21.1021651 35.6244787,21.5388274 35.2378101,21.8321622 C34.8511415,22.125497 34.3644797,22.2721622 33.7778101,22.2721622 C33.3644747,22.2721622 33.006145,22.2054962 32.7028101,22.0721622 C32.3994753,21.9388282 32.1444778,21.7521634 31.9378101,21.5121622 C31.7311424,21.272161 31.576144,20.9854972 31.4728101,20.6521622 C31.3694763,20.3188272 31.3111435,19.9554975 31.2978101,19.5621622 C31.2978101,19.1688269 31.3578095,18.8088305 31.4778101,18.4821622 C31.5978107,18.1554939 31.7661424,17.8721634 31.9828101,17.6321622 C32.1994779,17.392161 32.456142,17.2054962 32.7528101,17.0721622 C33.0494783,16.9388282 33.374475,16.8721622 33.7278101,16.8721622 C34.1878124,16.8721622 34.5694753,16.9671612 34.8728101,17.1571622 C35.176145,17.3471631 35.4194759,17.5888274 35.6028101,17.8821622 C35.7861444,18.175497 35.9128098,18.4954938 35.9828101,18.8421622 C36.0528105,19.1888306 36.0811435,19.5188273 36.0678101,19.8321622 L32.1978101,19.8321622 C32.1911434,20.05883 32.2178098,20.2738278 32.2778101,20.4771622 C32.3378104,20.6804965 32.4344761,20.8604947 32.5678101,21.0171622 C32.7011441,21.1738296 32.8711424,21.2988284 33.0778101,21.3921622 C33.2844778,21.485496 33.5278087,21.5321622 33.8078101,21.5321622 C34.1678119,21.5321622 34.462809,21.4488297 34.6928101,21.2821622 C34.9228113,21.1154947 35.0744764,20.8621639 35.1478101,20.5221622 L35.9878101,20.5221622 Z M41.3078101,19.0821622 C41.2944767,18.8821612 41.2494772,18.6921631 41.1728101,18.5121622 C41.0961431,18.3321613 40.9928108,18.1771628 40.8628101,18.0471622 C40.7328095,17.9171615 40.5794777,17.8138292 40.4028101,17.7371622 C40.2261426,17.6604951 40.0311445,17.6221622 39.8178101,17.6221622 C39.597809,17.6221622 39.3994777,17.6604951 39.2228101,17.7371622 C39.0461426,17.8138292 38.8944774,17.9188282 38.7678101,18.0521622 C38.6411428,18.1854962 38.5411438,18.3404946 38.4678101,18.5171622 C38.3944764,18.6938297 38.3511435,18.8821612 38.3378101,19.0821622 L41.3078101,19.0821622 Z M42.1278101,20.5221622 C42.0144762,21.1021651 41.7644787,21.5388274 41.3778101,21.8321622 C40.9911415,22.125497 40.5044797,22.2721622 39.9178101,22.2721622 C39.5044747,22.2721622 39.146145,22.2054962 38.8428101,22.0721622 C38.5394753,21.9388282 38.2844778,21.7521634 38.0778101,21.5121622 C37.8711424,21.272161 37.716144,20.9854972 37.6128101,20.6521622 C37.5094763,20.3188272 37.4511435,19.9554975 37.4378101,19.5621622 C37.4378101,19.1688269 37.4978095,18.8088305 37.6178101,18.4821622 C37.7378107,18.1554939 37.9061424,17.8721634 38.1228101,17.6321622 C38.3394779,17.392161 38.596142,17.2054962 38.8928101,17.0721622 C39.1894783,16.9388282 39.514475,16.8721622 39.8678101,16.8721622 C40.3278124,16.8721622 40.7094753,16.9671612 41.0128101,17.1571622 C41.316145,17.3471631 41.5594759,17.5888274 41.7428101,17.8821622 C41.9261444,18.175497 42.0528098,18.4954938 42.1228101,18.8421622 C42.1928105,19.1888306 42.2211435,19.5188273 42.2078101,19.8321622 L38.3378101,19.8321622 C38.3311434,20.05883 38.3578098,20.2738278 38.4178101,20.4771622 C38.4778104,20.6804965 38.5744761,20.8604947 38.7078101,21.0171622 C38.8411441,21.1738296 39.0111424,21.2988284 39.2178101,21.3921622 C39.4244778,21.485496 39.6678087,21.5321622 39.9478101,21.5321622 C40.3078119,21.5321622 40.602809,21.4488297 40.8328101,21.2821622 C41.0628113,21.1154947 41.2144764,20.8621639 41.2878101,20.5221622 L42.1278101,20.5221622 Z M43.8278101,16.9921622 L43.8278101,22.1621622 L44.6778101,22.1621622 L44.6778101,19.8621622 C44.6778101,19.5288272 44.7111431,19.2338301 44.7778101,18.9771622 C44.8444771,18.7204942 44.9511427,18.5021631 45.0978101,18.3221622 C45.2444775,18.1421613 45.4378089,18.005496 45.6778101,17.9121622 C45.9178113,17.8188284 46.2078084,17.7721622 46.5478101,17.7721622 L46.5478101,16.8721622 C46.0878078,16.8588288 45.7078116,16.9521612 45.4078101,17.1521622 C45.1078086,17.3521632 44.8544778,17.6621601 44.6478101,18.0821622 L44.6278101,18.0821622 L44.6278101,16.9921622 L43.8278101,16.9921622 Z M48.8578101,16.0621622 L48.8578101,15.0221622 L48.0078101,15.0221622 L48.0078101,16.0621622 L48.8578101,16.0621622 Z M48.0078101,16.9921622 L48.0078101,22.1621622 L48.8578101,22.1621622 L48.8578101,16.9921622 L48.0078101,16.9921622 Z M50.94781,16.9921622 L50.94781,22.1621622 L51.79781,22.1621622 L51.79781,19.2421622 C51.79781,19.0088277 51.8294764,18.7938298 51.89281,18.5971622 C51.9561437,18.4004945 52.0511427,18.2288296 52.17781,18.0821622 C52.3044773,17.9354948 52.4628091,17.8221626 52.65281,17.7421622 C52.842811,17.6621618 53.0678087,17.6221622 53.32781,17.6221622 C53.6544783,17.6221622 53.9111424,17.7154946 54.09781,17.9021622 C54.2844776,18.0888298 54.37781,18.3421606 54.37781,18.6621622 L54.37781,22.1621622 L55.22781,22.1621622 L55.22781,18.7621622 C55.22781,18.4821608 55.199477,18.2271633 55.14281,17.9971622 C55.0861431,17.767161 54.9878107,17.5688297 54.84781,17.4021622 C54.7078093,17.2354947 54.5244778,17.105496 54.29781,17.0121622 C54.0711422,16.9188284 53.7878117,16.8721622 53.44781,16.8721622 C52.6811395,16.8721622 52.1211451,17.1854924 51.76781,17.8121622 L51.74781,17.8121622 L51.74781,16.9921622 L50.94781,16.9921622 Z M61.73781,21.7221622 C61.73781,22.5688331 61.5444786,23.2021601 61.15781,23.6221622 C60.7711414,24.0421643 60.1644808,24.2521622 59.33781,24.2521622 C59.0978088,24.2521622 58.8528113,24.2254958 58.60281,24.1721622 C58.3528088,24.1188286 58.1261444,24.0321628 57.92281,23.9121622 C57.7194757,23.7921616 57.551144,23.6354965 57.41781,23.4421622 C57.284476,23.2488279 57.2111434,23.0121636 57.19781,22.7321622 L58.04781,22.7321622 C58.0544767,22.8854963 58.1028096,23.015495 58.19281,23.1221622 C58.2828105,23.2288294 58.3928094,23.3154952 58.52281,23.3821622 C58.6528107,23.4488292 58.7944759,23.497162 58.94781,23.5271622 C59.1011441,23.5571623 59.2478093,23.5721622 59.38781,23.5721622 C59.6678114,23.5721622 59.9044757,23.5238293 60.09781,23.4271622 C60.2911443,23.330495 60.4511427,23.197163 60.57781,23.0271622 C60.7044773,22.8571613 60.7961431,22.6521634 60.85281,22.4121622 C60.909477,22.172161 60.93781,21.9088303 60.93781,21.6221622 L60.93781,21.2821622 L60.91781,21.2821622 C60.7711426,21.6021638 60.5494782,21.8371614 60.25281,21.9871622 C59.9561419,22.1371629 59.641145,22.2121622 59.30781,22.2121622 C58.9211414,22.2121622 58.5844781,22.1421629 58.29781,22.0021622 C58.0111419,21.8621615 57.7711443,21.67383 57.57781,21.4371622 C57.3844757,21.2004943 57.2394772,20.9238304 57.14281,20.6071622 C57.0461429,20.2904939 56.99781,19.9554973 56.99781,19.6021622 C56.99781,19.295494 57.0378096,18.9804971 57.11781,18.6571622 C57.1978104,18.3338272 57.3311424,18.0404968 57.51781,17.7771622 C57.7044776,17.5138275 57.9511418,17.297163 58.25781,17.1271622 C58.5644782,16.9571613 58.9411411,16.8721622 59.38781,16.8721622 C59.7144783,16.8721622 60.0144753,16.9438281 60.28781,17.0871622 C60.5611447,17.2304962 60.7744759,17.4454941 60.92781,17.7321622 L60.93781,17.7321622 L60.93781,16.9921622 L61.73781,16.9921622 L61.73781,21.7221622 Z M59.35781,21.4721622 C59.6378114,21.4721622 59.8761424,21.4138294 60.07281,21.2971622 C60.2694777,21.1804949 60.4278094,21.0271631 60.54781,20.8371622 C60.6678106,20.6471612 60.7561431,20.4321634 60.81281,20.1921622 C60.869477,19.952161 60.89781,19.7121634 60.89781,19.4721622 C60.89781,19.2454944 60.8711436,19.0221633 60.81781,18.8021622 C60.7644764,18.5821611 60.6794773,18.3838297 60.56281,18.2071622 C60.4461428,18.0304946 60.2944776,17.8888294 60.10781,17.7821622 C59.9211424,17.675495 59.694478,17.6221622 59.42781,17.6221622 C59.1544753,17.6221622 58.9211443,17.6738283 58.72781,17.7771622 C58.5344757,17.880496 58.376144,18.018828 58.25281,18.1921622 C58.1294761,18.3654964 58.039477,18.5654944 57.98281,18.7921622 C57.9261431,19.01883 57.89781,19.2554943 57.89781,19.5021622 C57.89781,19.7354967 57.9211431,19.9688277 57.96781,20.2021622 C58.0144769,20.4354967 58.0944761,20.6471612 58.20781,20.8371622 C58.3211439,21.0271631 58.4711424,21.1804949 58.65781,21.2971622 C58.8444776,21.4138294 59.0778086,21.4721622 59.35781,21.4721622 Z M68.42781,18.0921622 L70.32781,18.0921622 C70.8678127,18.0921622 71.2561421,17.9971631 71.49281,17.8071622 C71.7294778,17.6171612 71.84781,17.3321641 71.84781,16.9521622 C71.84781,16.6988276 71.8078104,16.4988296 71.72781,16.3521622 C71.6478096,16.2054948 71.5378107,16.0921626 71.39781,16.0121622 C71.2578093,15.9321618 71.0961442,15.8804956 70.91281,15.8571622 C70.7294757,15.8338287 70.5344777,15.8221622 70.32781,15.8221622 L68.42781,15.8221622 L68.42781,18.0921622 Z M67.47781,15.0221622 L70.06781,15.0221622 C70.2211441,15.0221622 70.3861424,15.0238288 70.56281,15.0271622 C70.7394775,15.0304955 70.9144758,15.0404954 71.08781,15.0571622 C71.2611442,15.0738289 71.4228092,15.0988287 71.57281,15.1321622 C71.7228107,15.1654957 71.8511428,15.2154952 71.95781,15.2821622 C72.1911445,15.4221629 72.3894758,15.6154943 72.55281,15.8621622 C72.7161441,16.1088301 72.79781,16.4121604 72.79781,16.7721622 C72.79781,17.1521641 72.7061442,17.4804941 72.52281,17.7571622 C72.3394757,18.0338302 72.0778117,18.2388282 71.73781,18.3721622 L71.73781,18.3921622 C72.1778122,18.485496 72.5144755,18.685494 72.74781,18.9921622 C72.9811445,19.2988304 73.09781,19.67216 73.09781,20.1121622 C73.09781,20.3721635 73.0511438,20.6254943 72.95781,20.8721622 C72.8644762,21.1188301 72.7261442,21.3371612 72.54281,21.5271622 C72.3594757,21.7171631 72.1328113,21.8704949 71.86281,21.9871622 C71.5928086,22.1038294 71.2811451,22.1621622 70.92781,22.1621622 L67.47781,22.1621622 L67.47781,15.0221622 Z M68.42781,21.3621622 L70.80781,21.3621622 C71.2278121,21.3621622 71.5561421,21.24883 71.79281,21.0221622 C72.0294778,20.7954944 72.14781,20.4821642 72.14781,20.0821622 C72.14781,19.8488277 72.1044771,19.6554963 72.01781,19.5021622 C71.9311429,19.3488281 71.816144,19.2271626 71.67281,19.1371622 C71.5294759,19.0471617 71.3644776,18.983829 71.17781,18.9471622 C70.9911424,18.9104953 70.797811,18.8921622 70.59781,18.8921622 L68.42781,18.8921622 L68.42781,21.3621622 Z M75.00781,15.0221622 L75.00781,22.1621622 L75.85781,22.1621622 L75.85781,15.0221622 L75.00781,15.0221622 Z M78.56781,19.5821622 C78.56781,19.8954971 78.6094762,20.1738276 78.69281,20.4171622 C78.7761437,20.6604967 78.8911426,20.863828 79.03781,21.0271622 C79.1844774,21.1904963 79.3561423,21.3154951 79.55281,21.4021622 C79.7494776,21.4888293 79.9578089,21.5321622 80.17781,21.5321622 C80.3978111,21.5321622 80.6061423,21.4888293 80.80281,21.4021622 C80.9994776,21.3154951 81.1711426,21.1904963 81.31781,21.0271622 C81.4644774,20.863828 81.5794762,20.6604967 81.66281,20.4171622 C81.7461437,20.1738276 81.78781,19.8954971 81.78781,19.5821622 C81.78781,19.2688273 81.7461437,18.9904967 81.66281,18.7471622 C81.5794762,18.5038276 81.4644774,18.2988297 81.31781,18.1321622 C81.1711426,17.9654947 80.9994776,17.8388293 80.80281,17.7521622 C80.6061423,17.6654951 80.3978111,17.6221622 80.17781,17.6221622 C79.9578089,17.6221622 79.7494776,17.6654951 79.55281,17.7521622 C79.3561423,17.8388293 79.1844774,17.9654947 79.03781,18.1321622 C78.8911426,18.2988297 78.7761437,18.5038276 78.69281,18.7471622 C78.6094762,18.9904967 78.56781,19.2688273 78.56781,19.5821622 Z M77.66781,19.5821622 C77.66781,19.2021603 77.7211428,18.8471638 77.82781,18.5171622 C77.9344772,18.1871605 78.0944756,17.9004967 78.30781,17.6571622 C78.5211444,17.4138276 78.7844751,17.2221629 79.09781,17.0821622 C79.4111449,16.9421615 79.7711413,16.8721622 80.17781,16.8721622 C80.5911454,16.8721622 80.9528084,16.9421615 81.26281,17.0821622 C81.5728115,17.2221629 81.8344756,17.4138276 82.04781,17.6571622 C82.2611444,17.9004967 82.4211428,18.1871605 82.52781,18.5171622 C82.6344772,18.8471638 82.68781,19.2021603 82.68781,19.5821622 C82.68781,19.9621641 82.6344772,20.3154939 82.52781,20.6421622 C82.4211428,20.9688305 82.2611444,21.2538276 82.04781,21.4971622 C81.8344756,21.7404967 81.5728115,21.9304948 81.26281,22.0671622 C80.9528084,22.2038295 80.5911454,22.2721622 80.17781,22.2721622 C79.7711413,22.2721622 79.4111449,22.2038295 79.09781,22.0671622 C78.7844751,21.9304948 78.5211444,21.7404967 78.30781,21.4971622 C78.0944756,21.2538276 77.9344772,20.9688305 77.82781,20.6421622 C77.7211428,20.3154939 77.66781,19.9621641 77.66781,19.5821622 Z M88.9178099,21.7221622 C88.9178099,22.5688331 88.7244785,23.2021601 88.3378099,23.6221622 C87.9511413,24.0421643 87.3444807,24.2521622 86.5178099,24.2521622 C86.2778087,24.2521622 86.0328112,24.2254958 85.7828099,24.1721622 C85.5328087,24.1188286 85.3061443,24.0321628 85.1028099,23.9121622 C84.8994756,23.7921616 84.7311439,23.6354965 84.5978099,23.4421622 C84.4644759,23.2488279 84.3911433,23.0121636 84.3778099,22.7321622 L85.2278099,22.7321622 C85.2344766,22.8854963 85.2828095,23.015495 85.3728099,23.1221622 C85.4628104,23.2288294 85.5728093,23.3154952 85.7028099,23.3821622 C85.8328106,23.4488292 85.9744758,23.497162 86.1278099,23.5271622 C86.281144,23.5571623 86.4278092,23.5721622 86.5678099,23.5721622 C86.8478113,23.5721622 87.0844756,23.5238293 87.2778099,23.4271622 C87.4711442,23.330495 87.6311426,23.197163 87.7578099,23.0271622 C87.8844772,22.8571613 87.976143,22.6521634 88.0328099,22.4121622 C88.0894769,22.172161 88.1178099,21.9088303 88.1178099,21.6221622 L88.1178099,21.2821622 L88.0978099,21.2821622 C87.9511425,21.6021638 87.7294781,21.8371614 87.4328099,21.9871622 C87.1361418,22.1371629 86.8211449,22.2121622 86.4878099,22.2121622 C86.1011413,22.2121622 85.764478,22.1421629 85.4778099,22.0021622 C85.1911418,21.8621615 84.9511442,21.67383 84.7578099,21.4371622 C84.5644756,21.2004943 84.4194771,20.9238304 84.3228099,20.6071622 C84.2261428,20.2904939 84.1778099,19.9554973 84.1778099,19.6021622 C84.1778099,19.295494 84.2178095,18.9804971 84.2978099,18.6571622 C84.3778103,18.3338272 84.5111423,18.0404968 84.6978099,17.7771622 C84.8844775,17.5138275 85.1311417,17.297163 85.4378099,17.1271622 C85.7444781,16.9571613 86.121141,16.8721622 86.5678099,16.8721622 C86.8944782,16.8721622 87.1944752,16.9438281 87.4678099,17.0871622 C87.7411446,17.2304962 87.9544758,17.4454941 88.1078099,17.7321622 L88.1178099,17.7321622 L88.1178099,16.9921622 L88.9178099,16.9921622 L88.9178099,21.7221622 Z M86.5378099,21.4721622 C86.8178113,21.4721622 87.0561423,21.4138294 87.2528099,21.2971622 C87.4494776,21.1804949 87.6078093,21.0271631 87.7278099,20.8371622 C87.8478105,20.6471612 87.936143,20.4321634 87.9928099,20.1921622 C88.0494769,19.952161 88.0778099,19.7121634 88.0778099,19.4721622 C88.0778099,19.2454944 88.0511435,19.0221633 87.9978099,18.8021622 C87.9444763,18.5821611 87.8594772,18.3838297 87.7428099,18.2071622 C87.6261427,18.0304946 87.4744775,17.8888294 87.2878099,17.7821622 C87.1011423,17.675495 86.8744779,17.6221622 86.6078099,17.6221622 C86.3344752,17.6221622 86.1011442,17.6738283 85.9078099,17.7771622 C85.7144756,17.880496 85.5561439,18.018828 85.4328099,18.1921622 C85.309476,18.3654964 85.2194769,18.5654944 85.1628099,18.7921622 C85.106143,19.01883 85.0778099,19.2554943 85.0778099,19.5021622 C85.0778099,19.7354967 85.101143,19.9688277 85.1478099,20.2021622 C85.1944768,20.4354967 85.274476,20.6471612 85.3878099,20.8371622 C85.5011438,21.0271631 85.6511423,21.1804949 85.8378099,21.2971622 C86.0244775,21.4138294 86.2578085,21.4721622 86.5378099,21.4721622 Z" id="Engineering-Blog" fill="#22BED1"></path>
                        </g>
                    </g>
                    <polygon id="Path-14" fill="#CFE1E2" points="5.43708765 9.85146723 18.98143 9.82431402 19.0558111 16.338367 16.8586617 16.5826029 19.1123234 21.8115949 3.75566691 24.3978659 7.40528258 16.7631002 4.97656374 16.2922066"></polygon>
                    <path d="M18.7769233,20.0095181 L23.8038496,30.2261265 C25.2072575,33.0783802 23.7813919,35.3905886 20.5960295,35.3905886 L3.7695177,35.3905886 C0.594479721,35.3905886 -0.844575124,33.0842027 0.556768028,30.2361454 L4.16870754,22.8953233 L18.7769233,20.0095181 Z" id="Combined-Shape" fill="url(#linearGradient-1)"></path>
                    <path d="M18.7769233,20.0095181 C18.7769233,20.0095181 18.2393618,22.0142435 12.0397221,21.3004002 C6.52142533,20.8283632 4.16870754,22.8953233 4.16870754,22.8953233 L18.7769233,20.0095181 Z" id="Combined-Shape" fill="url(#linearGradient-2)"></path>
                    <ellipse id="Oval" fill="#15D5D5" cx="12.7938923" cy="13.8420821" rx="1.90449209" ry="1.82780484"></ellipse>
                    <polygon id="Path-15" fill="#B3C6C6" opacity="0.301772388" points="5.6763567 10.1988853 18.9172181 10.2166063 19.220699 11.2384242 19.2483014 11.8176448 5.17835371 11.8176448"></polygon>
                    <path d="M16.9021414,16.8114218 L23.8035027,30.8375884 C25.2063534,33.6887096 23.7800361,36 20.5946737,36 L3.76816189,36 C0.593123907,36 -0.845742829,33.6932318 0.559332918,30.8375884 L7.46069423,16.8114218 L6.31709683,16.8114218 C5.4150508,16.8114218 4.68379801,16.0684561 4.68379801,15.1786022 L4.68379801,11.2485245 C4.68379801,10.3467431 5.42741427,9.61570494 6.31709683,9.61570494 L18.0457388,9.61570494 C18.9477848,9.61570494 19.6790376,10.3586706 19.6790376,11.2485245 L19.6790376,15.1786022 C19.6790376,16.0803836 18.9354213,16.8114218 18.0457388,16.8114218 L16.9021414,16.8114218 Z" id="Combined-Shape" stroke="#FFFFFF" stroke-width="1.5" fill-opacity="0.133463542" fill="#FFFFFF"></path>
                    <ellipse id="Oval" stroke="#FFFFFF" stroke-width="0.594" fill="#79D8C2" cx="9.16375754" cy="5.11124331" rx="1.66613773" ry="1.59904819"></ellipse>
                    <ellipse id="Oval" stroke="#FFFFFF" stroke-width="0.594" fill="#5FF3E4" cx="14.1621707" cy="1.31350384" rx="1.36861311" ry="1.31350384"></ellipse>
                    <ellipse id="Oval" fill="#4DF2F2" cx="12.0199937" cy="21.6085663" rx="1.66613773" ry="1.59904819"></ellipse>
                    <ellipse id="Oval" fill="#00E5DF" cx="15.8283085" cy="28.0047591" rx="1.66613773" ry="1.59904819"></ellipse>
                    <ellipse id="Oval" fill="#5CF1F1" cx="10.621628" cy="26.7055324" rx="0.922326217" ry="0.885187361"></ellipse>
                    <path d="M8.61877035,20.7860614 L2.82886924,32.6911351" id="Path-4" stroke="#FFFFFF" stroke-width="1.67507996" stroke-linecap="round" stroke-linejoin="round"></path>
                    <path d="M9.81831165,18.5729325 L10.5592176,16.9756098" id="Path-4" stroke="#FFFFFF" stroke-width="1.67507996" stroke-linecap="round" stroke-linejoin="round" opacity="0.949999988"></path>
                </g>
            </g>
        </g>
    </g>
</svg>