<?xml version="1.0" encoding="UTF-8"?>
<svg width="172px" height="61px" viewBox="0 0 172 61" version="1.1" xmlns="http://www.w3.org/2000/svg" xmlns:xlink="http://www.w3.org/1999/xlink">
    <!-- Generator: Sketch 42 (36781) - http://www.bohemiancoding.com/sketch -->
    <title>Group 53</title>
    <desc>Created with Sketch.</desc>
    <defs>
        <filter x="-50%" y="-50%" width="200%" height="200%" filterUnits="objectBoundingBox" id="filter-1">
            <feOffset dx="0" dy="1" in="SourceAlpha" result="shadowOffsetOuter1"></feOffset>
            <feColorMatrix values="0 0 0 0 1   0 0 0 0 1   0 0 0 0 1  0 0 0 0.577672101 0" type="matrix" in="shadowOffsetOuter1" result="shadowMatrixOuter1"></feColorMatrix>
            <feMerge>
                <feMergeNode in="shadowMatrixOuter1"></feMergeNode>
                <feMergeNode in="SourceGraphic"></feMergeNode>
            </feMerge>
        </filter>
        <linearGradient x1="50%" y1="97.5745376%" x2="50%" y2="0%" id="linearGradient-2">
            <stop stop-color="#0065AC" offset="0%"></stop>
            <stop stop-color="#00F5E4" offset="100%"></stop>
        </linearGradient>
        <linearGradient x1="50%" y1="0%" x2="50%" y2="100%" id="linearGradient-3">
            <stop stop-color="#11CECE" offset="0%"></stop>
            <stop stop-color="#83FFE4" offset="100%"></stop>
        </linearGradient>
        <path d="M53.3589643,37.4473021 L48.7152778,37.4473021 L54.8636225,27.7164069 L49.0136152,18.3483146 L53.7870136,18.3483146 L57.198437,24.5548377 L60.7006586,18.3483146 L65.3184028,18.3483146 L59.4683955,27.5609199 L65.6815961,37.4473021 L60.8303706,37.4473021 L57.198437,30.9427623 L53.3589643,37.4473021 Z M68.0293818,18.3483146 L72.0245087,18.3483146 L72.0245087,34.0136307 L81.4934785,34.0136307 L81.4934785,37.4473021 L68.0293818,37.4473021 L68.0293818,18.3483146 Z M88.2514692,21.6653708 L88.2514692,26.7964421 L92.778415,26.7964421 C93.6777554,26.7964421 94.3522506,26.6927851 94.8019208,26.485468 C95.5974912,26.1226632 95.9952705,25.4057025 95.9952705,24.3345644 C95.9952705,23.1770442 95.6104623,22.399617 94.8408344,22.0022593 C94.4084592,21.7776658 93.7599061,21.6653708 92.8951557,21.6653708 L88.2514692,21.6653708 Z M96.8189411,18.8406901 C97.5410077,19.1430275 98.1528094,19.5878887 98.6543647,20.175287 C99.0694449,20.6590267 99.3980451,21.1945877 99.6401752,21.781986 C99.8823054,22.3693843 100.003369,23.0388356 100.003369,23.7903599 C100.003369,24.697372 99.7742132,25.5892538 99.3158955,26.4660322 C98.8575777,27.3428105 98.1009325,27.9625928 97.045937,28.3253976 C97.9279824,28.6795643 98.5527552,29.1827325 98.9202741,29.8349174 C99.287793,30.4871022 99.4715498,31.482641 99.4715498,32.8215636 L99.4715498,34.1043315 C99.4715498,34.9767907 99.5061392,35.5684992 99.5753193,35.8794748 C99.6790893,36.3718528 99.9212158,36.7346522 100.301706,36.9678839 L100.301706,37.4473021 L95.9044721,37.4473021 C95.7834071,37.0240298 95.6969333,36.6828256 95.6450483,36.4236793 C95.5412782,35.8881103 95.4850703,35.3395922 95.4764228,34.7781085 L95.4504804,33.0029652 C95.4331854,31.7849775 95.2105155,30.9729979 94.7824641,30.567002 C94.3544126,30.1610061 93.5523686,29.9580112 92.3763081,29.9580112 L88.2514692,29.9580112 L88.2514692,37.4473021 L84.3471406,37.4473021 L84.3471406,18.3483146 L93.725312,18.3483146 C95.0656751,18.3742292 96.0968745,18.5383528 96.8189411,18.8406901 Z M110.821342,18.3483146 L114.816469,18.3483146 L114.816469,34.0136307 L124.285439,34.0136307 L124.285439,37.4473021 L110.821342,37.4473021 L110.821342,18.3483146 Z M134.545651,30.5799593 C134.312169,30.7268088 134.076528,30.8455825 133.838721,30.9362837 C133.600915,31.0269849 133.274477,31.1112062 132.859396,31.1889501 L132.02924,31.3444371 C131.250965,31.4826484 130.693209,31.651091 130.355956,31.8497698 C129.785221,32.18666 129.499858,32.7092639 129.499858,33.4175972 C129.499858,34.0481865 129.674967,34.5038453 130.025191,34.7845871 C130.375415,35.065329 130.801298,35.2056978 131.302853,35.2056978 C132.098424,35.2056978 132.831289,34.9724696 133.50147,34.5060062 C134.171652,34.0395429 134.519709,33.1886919 134.545651,31.9534278 L134.545651,30.5799593 Z M132.301635,28.8566449 C132.984788,28.7702628 133.473365,28.6622868 133.76738,28.5327137 C134.294878,28.3081202 134.558623,27.9582779 134.558623,27.4831764 C134.558623,26.9044163 134.357571,26.504905 133.955462,26.2846307 C133.553353,26.0643563 132.96317,25.9542208 132.184894,25.9542208 C131.311497,25.9542208 130.693209,26.1701728 130.330014,26.6020833 C130.070589,26.9216971 129.897641,27.3536011 129.811166,27.8978084 L126.244089,27.8978084 C126.321916,26.6625443 126.667811,25.6475698 127.281784,24.8528545 C128.258952,23.6089522 129.936543,22.9870104 132.314606,22.9870104 C133.86251,22.9870104 135.237442,23.2936622 136.439445,23.9069752 C137.641448,24.5202881 138.242441,25.6777909 138.242441,27.3795183 L138.242441,33.8581437 C138.242441,34.3073306 138.251088,34.8515297 138.268383,35.4907573 C138.294326,35.9744971 138.367828,36.3027441 138.488894,36.4755083 C138.609959,36.6482725 138.791553,36.7908009 139.033684,36.9030976 L139.033684,37.4473021 L135.012614,37.4473021 C134.900197,37.1622412 134.82237,36.8944607 134.779133,36.6439526 C134.735895,36.3934445 134.701306,36.1083878 134.675363,35.7887741 C134.16516,36.3416195 133.577139,36.8123949 132.911281,37.2011144 C132.115711,37.6589395 131.216384,37.8878487 130.213273,37.8878487 C128.933443,37.8878487 127.876301,37.5228898 127.041817,36.792961 C126.207333,36.0630322 125.790097,35.028622 125.790097,33.6896994 C125.790097,31.9534192 126.460269,30.6965784 127.800632,29.9191395 C128.53567,29.4958672 129.616591,29.1935344 131.04343,29.0121319 L132.301635,28.8566449 Z M153.52899,25.0212987 C154.579662,26.3602213 155.10499,28.0878375 155.10499,30.204199 C155.10499,32.3983044 154.586147,34.2166204 153.548447,35.6592015 C152.510746,37.1017827 151.062311,37.8230624 149.203098,37.8230624 C148.035685,37.8230624 147.097444,37.5898342 146.388349,37.1233709 C145.964621,36.8469481 145.506311,36.3632156 145.013403,35.6721588 L145.013403,37.4473021 L141.39444,37.4473021 L141.39444,18.3742291 L145.078259,18.3742291 L145.078259,25.1638285 C145.545224,24.5073245 146.059743,24.0063158 146.621831,23.6607874 C147.287688,23.2288769 148.135131,23.0129249 149.164184,23.0129249 C151.023397,23.0129249 152.478318,23.6823761 153.52899,25.0212987 Z M150.435361,33.6249132 C150.962859,32.8561125 151.226603,31.845457 151.226603,30.5929165 C151.226603,29.5908841 151.096893,28.7616284 150.837468,28.1051244 C150.34456,26.8612221 149.436586,26.2392803 148.113518,26.2392803 C146.773154,26.2392803 145.852209,26.848265 145.350654,28.0662526 C145.091229,28.7141184 144.961518,29.5520122 144.961518,30.5799593 C144.961518,31.7893087 145.229587,32.7913261 145.765732,33.5860414 C146.301877,34.3807568 147.119054,34.7781085 148.217287,34.7781085 C149.168513,34.7781085 149.907863,34.3937139 150.435361,33.6249132 Z M160.630717,32.9381789 C160.708545,33.5946829 160.877169,34.0611392 161.136594,34.337562 C161.594911,34.82994 162.442354,35.0761253 163.678947,35.0761253 C164.405338,35.0761253 164.98255,34.9681493 165.410601,34.752194 C165.838653,34.5362387 166.052675,34.2123107 166.052675,33.7804002 C166.052675,33.3657661 165.879728,33.0504761 165.533828,32.8345209 C165.187927,32.6185656 163.903792,32.2471282 161.681384,31.7201973 C160.081595,31.3228397 158.953113,30.82615 158.295903,30.2301135 C157.638692,29.6427152 157.310092,28.7961833 157.310092,27.6904924 C157.310092,26.3861226 157.822449,25.2653316 158.847178,24.3280858 C159.871908,23.39084 161.313857,22.9222241 163.173071,22.9222241 C164.937162,22.9222241 166.374788,23.2742259 167.485992,23.97824 C168.597196,24.6822542 169.23494,25.898064 169.399243,27.6257061 L165.702453,27.6257061 C165.650568,27.1506045 165.516534,26.774848 165.300346,26.4984253 C164.893913,25.9974091 164.202123,25.7469048 163.224956,25.7469048 C162.420738,25.7469048 161.847849,25.8721569 161.506273,26.122665 C161.164696,26.3731731 160.993911,26.6668679 160.993911,27.0037581 C160.993911,27.4270304 161.175505,27.7336822 161.538701,27.9237229 C161.901896,28.1224017 163.186031,28.4636059 165.391144,28.9473457 C166.86122,29.2928741 167.96376,29.815478 168.698798,30.515173 C169.425189,31.2235063 169.788378,32.1089095 169.788378,33.1714094 C169.788378,34.5707995 169.267374,35.7131857 168.22535,36.5986022 C167.183326,37.4840188 165.572752,37.9267204 163.393581,37.9267204 C161.171172,37.9267204 159.530333,37.4581045 158.471014,36.5208587 C157.411695,35.5836129 156.882043,34.3893982 156.882043,32.9381789 L160.630717,32.9381789 Z" id="path-4"></path>
        <filter x="-50%" y="-50%" width="200%" height="200%" filterUnits="objectBoundingBox" id="filter-5">
            <feOffset dx="0" dy="1" in="SourceAlpha" result="shadowOffsetOuter1"></feOffset>
            <feColorMatrix values="0 0 0 0 1   0 0 0 0 1   0 0 0 0 1  0 0 0 0.80638587 0" type="matrix" in="shadowOffsetOuter1"></feColorMatrix>
        </filter>
        <text id="text-6" font-family="Helvetica-Bold, Helvetica" font-size="11.2" font-weight="bold" fill="#137894">
            <tspan x="48.6154514" y="50.8876404">Accelerator Team</tspan>
        </text>
        <filter x="-50%" y="-50%" width="200%" height="200%" filterUnits="objectBoundingBox" id="filter-7">
            <feOffset dx="0" dy="1" in="SourceAlpha" result="shadowOffsetOuter1"></feOffset>
            <feColorMatrix values="0 0 0 0 1   0 0 0 0 1   0 0 0 0 1  0 0 0 0.411288496 0" type="matrix" in="shadowOffsetOuter1"></feColorMatrix>
        </filter>
    </defs>
    <g id="Page-1" stroke="none" stroke-width="1" fill="none" fill-rule="evenodd">
        <g id="Group-53" transform="translate(-7.000000, -4.000000)">
            <rect id="Rectangle-85" x="0" y="0" width="230" height="69" rx="8.8"></rect>
            <g id="Group-52" transform="translate(8.347222, 5.179775)">
                <g id="Group">
                    <g id="Group-3" filter="url(#filter-1)">
                        <g id="Group-2">
                            <polygon id="Path-14" fill="#CFE1E2" points="8.68423722 15.7180713 30.3175618 15.6747482 30.436365 26.0679563 26.9270291 26.4576361 30.5266276 34.8005222 5.99863465 38.926932 11.8278819 26.7456206 7.9486782 25.9943071"></polygon>
                            <path d="M29.9909192,31.9252986 L38.0116211,48.2088678 C40.2578237,52.7690913 37.964118,56.4658829 32.8828002,56.4658829 L6.03439331,56.4658829 C0.955621205,56.4658829 -1.34324273,52.7743954 0.903472603,48.2131307 L6.65835233,36.5296169 L29.9909192,31.9252986 Z" id="Combined-Shape" fill="url(#linearGradient-2)"></path>
                            <path d="M29.9909192,31.9252986 C29.9909192,31.9252986 29.132314,35.1238492 19.2301117,33.9849081 C10.4161655,33.2317705 6.65835233,36.5296169 6.65835233,36.5296169 L29.9909192,31.9252986 Z" id="Combined-Shape" fill="url(#linearGradient-3)"></path>
                            <ellipse id="Oval" fill="#15D5D5" cx="20.4346891" cy="22.0851197" rx="3.04189709" ry="2.9162729"></ellipse>
                            <polygon id="Path-15" fill="#B3C6C6" opacity="0.301772388" points="9.06640306 16.2723788 30.2150012 16.3006528 30.6997276 17.9309689 30.7438147 18.8551187 8.27098162 18.8551187"></polygon>
                            <path d="M26.9964758,26.8227179 L38.0129504,49.1882822 C40.2572228,53.7445872 37.9619524,57.4382022 32.8806347,57.4382022 L6.03222777,57.4382022 C0.95345567,57.4382022 -1.34131154,53.7383976 0.899912025,49.1882822 L11.9163866,26.8227179 L10.1127256,26.8227179 C8.65930027,26.8227179 7.48106626,25.637312 7.48106626,24.1887889 L7.48106626,17.9758402 C7.48106626,16.5211614 8.65247303,15.3419112 10.1127256,15.3419112 L28.8001369,15.3419112 C30.2535622,15.3419112 31.4317962,16.5273172 31.4317962,17.9758402 L31.4317962,24.1887889 C31.4317962,25.6434677 30.2603894,26.8227179 28.8001369,26.8227179 L26.9964758,26.8227179 Z" id="Combined-Shape" stroke="#143251" stroke-width="1.92" fill-opacity="0.133463542" fill="#FFFFFF"></path>
                            <ellipse id="Oval" stroke="#143251" stroke-width="0.9504" fill="#79D8C2" cx="14.6365572" cy="8.15501741" rx="2.66119221" ry="2.55129036"></ellipse>
                            <ellipse id="Oval" stroke="#143251" stroke-width="0.9504" fill="#5FF3E4" cx="22.6201338" cy="2.09570276" rx="2.18597927" ry="2.09570276"></ellipse>
                            <ellipse id="Oval" fill="#4DF2F2" cx="19.198601" cy="34.476589" rx="2.66119221" ry="2.55129036"></ellipse>
                            <ellipse id="Oval" fill="#00E5DF" cx="25.281326" cy="44.6817504" rx="2.66119221" ry="2.55129036"></ellipse>
                            <ellipse id="Oval" fill="#5CF1F1" cx="16.9651003" cy="42.608827" rx="1.47315993" ry="1.41232141"></ellipse>
                            <path d="M13.7660915,33.1642777 L4.51833281,52.1588897" id="Path-4" stroke="#FFFFFF" stroke-width="2.68012794" stroke-linecap="round" stroke-linejoin="round"></path>
                            <path d="M15.6820255,29.6332182 L16.865417,27.0846807" id="Path-4" stroke="#FFFFFF" stroke-width="2.68012794" stroke-linecap="round" stroke-linejoin="round" opacity="0.949999988"></path>
                        </g>
                    </g>
                    <g id="XLR-Labs">
                        <use fill="black" fill-opacity="1" filter="url(#filter-5)" xlink:href="#path-4"></use>
                        <use fill="#143251" fill-rule="evenodd" xlink:href="#path-4"></use>
                    </g>
                </g>
                <g id="Accelerator-Team" fill-opacity="1" fill="#137894">
                    <use filter="url(#filter-7)" xlink:href="#text-6"></use>
                    <use xlink:href="#text-6"></use>
                </g>
            </g>
        </g>
    </g>
</svg>